<?xml version="1.0" standalone="no"?>
<!DOCTYPE svg PUBLIC "-//W3C//DTD SVG 1.1//EN" "http://www.w3.org/Graphics/SVG/1.1/DTD/svg11.dtd" >
<svg xmlns="http://www.w3.org/2000/svg" xmlns:xlink="http://www.w3.org/1999/xlink" version="1.1">
<metadata>
Created by FontForge 20201107 at Sat Feb  5 18:34:24 2022
 By Jimmy Wärting
New Alenia(c) (Shanaya). 2022. All Rights Reserved
</metadata>
<defs>
<font id="NewAlenia" horiz-adv-x="1133" >
  <font-face 
    font-family="New Alenia"
    font-weight="400"
    font-stretch="normal"
    units-per-em="2048"
    panose-1="2 0 6 0 0 0 0 0 0 0"
    ascent="1638"
    descent="-410"
    x-height="1084"
    cap-height="1434"
    bbox="75 -466 1959 1653"
    underline-thickness="150"
    underline-position="-292"
    unicode-range="U+001D-20AC"
  />
<missing-glyph horiz-adv-x="1024" 
d="M100 0v1434h824v-1434h-824zM150 50h724v1334h-724v-1334zM325 1148q31 28 58 43q53 30 112 30q92 0 148 -47.5t56 -127.5q0 -49 -23 -98.5t-87 -129.5q-63 -80 -99 -132t-36 -99q0 -38 24 -133h-32q-35 97 -35 148q0 76 81.5 218t81.5 217q0 57 -33 90t-91 33
q-38 0 -69 -17q-26 -15 -56 -40v45zM389 334l57 58q11 10 20 10q10 0 22 -11l56 -60q9 -11 9 -20q0 -11 -10 -22l-56 -62q-14 -14 -21 -14q-11 0 -20 10l-61 71q-7 9 -7 18q0 10 11 22z" />
    <glyph glyph-name=".notdef" horiz-adv-x="1024" 
d="M100 0v1434h824v-1434h-824zM150 50h724v1334h-724v-1334zM325 1148q31 28 58 43q53 30 112 30q92 0 148 -47.5t56 -127.5q0 -49 -23 -98.5t-87 -129.5q-63 -80 -99 -132t-36 -99q0 -38 24 -133h-32q-35 97 -35 148q0 76 81.5 218t81.5 217q0 57 -33 90t-91 33
q-38 0 -69 -17q-26 -15 -56 -40v45zM389 334l57 58q11 10 20 10q10 0 22 -11l56 -60q9 -11 9 -20q0 -11 -10 -22l-56 -62q-14 -14 -21 -14q-11 0 -20 10l-61 71q-7 9 -7 18q0 10 11 22z" />
    <glyph glyph-name="uni0000" horiz-adv-x="0" 
 />
    <glyph glyph-name="uni0000" horiz-adv-x="0" 
 />
    <glyph glyph-name="uni0009" horiz-adv-x="508" 
 />
    <glyph glyph-name="space" unicode=" " horiz-adv-x="508" 
 />
    <glyph glyph-name="space" unicode="&#xa0;" horiz-adv-x="508" 
 />
    <glyph glyph-name="exclam" unicode="!" horiz-adv-x="331" 
 />
    <glyph glyph-name="quotedbl" unicode="&#x22;" horiz-adv-x="581" 
 />
    <glyph glyph-name="numbersign" unicode="#" horiz-adv-x="1438" 
 />
    <glyph glyph-name="dollar" unicode="$" horiz-adv-x="1168" 
 />
    <glyph glyph-name="percent" unicode="%" horiz-adv-x="1637" 
 />
    <glyph glyph-name="ampersand" unicode="&#x26;" horiz-adv-x="1197" 
 />
    <glyph glyph-name="quotesingle" unicode="'" horiz-adv-x="332" 
 />
    <glyph glyph-name="parenleft" unicode="(" horiz-adv-x="557" 
 />
    <glyph glyph-name="parenright" unicode=")" horiz-adv-x="556" 
 />
    <glyph glyph-name="asterisk" unicode="*" horiz-adv-x="742" 
 />
    <glyph glyph-name="plus" unicode="+" horiz-adv-x="888" 
 />
    <glyph glyph-name="comma" unicode="," horiz-adv-x="460" 
 />
    <glyph glyph-name="hyphen" unicode="-" horiz-adv-x="889" 
 />
    <glyph glyph-name="hyphen" unicode="&#xad;" horiz-adv-x="889" 
 />
    <glyph glyph-name="period" unicode="." horiz-adv-x="331" 
 />
    <glyph glyph-name="slash" unicode="/" horiz-adv-x="902" 
 />
    <glyph glyph-name="zero" unicode="0" 
 />
    <glyph glyph-name="one" unicode="1" 
 />
    <glyph glyph-name="two" unicode="2" 
 />
    <glyph glyph-name="three" unicode="3" horiz-adv-x="1124" 
 />
    <glyph glyph-name="four" unicode="4" 
 />
    <glyph glyph-name="five" unicode="5" horiz-adv-x="1124" 
 />
    <glyph glyph-name="six" unicode="6" horiz-adv-x="1132" 
 />
    <glyph glyph-name="seven" unicode="7" 
 />
    <glyph glyph-name="eight" unicode="8" 
 />
    <glyph glyph-name="nine" unicode="9" 
 />
    <glyph glyph-name="colon" unicode=":" horiz-adv-x="331" 
 />
    <glyph glyph-name="semicolon" unicode=";" horiz-adv-x="460" 
 />
    <glyph glyph-name="less" unicode="&#x3c;" horiz-adv-x="765" 
 />
    <glyph glyph-name="equal" unicode="=" horiz-adv-x="888" 
 />
    <glyph glyph-name="greater" unicode="&#x3e;" horiz-adv-x="765" 
 />
    <glyph glyph-name="question" unicode="?" horiz-adv-x="1169" 
 />
    <glyph glyph-name="at" unicode="@" horiz-adv-x="1978" 
 />
    <glyph glyph-name="A" unicode="A" horiz-adv-x="1384" 
d="M1309 0h-183l-434 1177l-433 -1177h-184l529 1434h177z" />
    <glyph glyph-name="B" unicode="B" horiz-adv-x="1303" 
d="M753 0h-678v1435h678q147 0 253.5 -51.5t164 -142.5t57.5 -207q0 -195 -158 -311q158 -118 158 -316q0 -183 -131 -295t-344 -112zM755 183q127 0 209 62.5t84 161.5q-2 98 -85 161t-208 63h-500v-448h500zM755 814q127 0 209 61.5t84 158.5q-2 96 -85 158.5t-208 62.5
h-500v-441h500z" />
    <glyph glyph-name="C" unicode="C" horiz-adv-x="1315" 
d="M936 0h-557q-126 0 -215 89t-89 215v827q0 125 89 214t215 89h557q126 0 215 -89t89 -214v-172h-180v173q0 51 -36 87t-87 36h-559q-51 0 -87 -36t-36 -87v-829q0 -51 36 -87t87 -36h559q51 0 87 36t36 87v173h180v-172q0 -126 -89 -215t-215 -89z" />
    <glyph glyph-name="D" unicode="D" horiz-adv-x="1305" 
d="M926 0h-850l-1 180h1v1075h-1l1 179h850q126 0 215 -89t89 -214v-827q0 -126 -89 -215t-215 -89zM927 180q51 0 87 36t36 87v829q0 51 -36 87t-87 36h-670v-1075h670z" />
    <glyph glyph-name="E" unicode="E" horiz-adv-x="1168" 
d="M255 0h-180v1434h1018v-180h-838v-445h702v-181h-702v-446h838v-181h-838v-1z" />
    <glyph glyph-name="F" unicode="F" horiz-adv-x="1168" 
d="M256 0h-181v1434h1018v-180h-837v-445h701v-181h-701v-628z" />
    <glyph glyph-name="G" unicode="G" horiz-adv-x="1314" 
d="M936 0h-558q-125 0 -214 89t-89 215v827q0 125 89 214t214 89h558q125 0 214 -89t89 -214v-172h-180v173q0 51 -36 87t-87 36h-559q-50 0 -86 -36t-36 -87v-829q0 -51 36 -87t86 -36h559q51 0 87 36t36 87v302q0 9 -6 15.5t-15 6.5h-403v181h431q72 0 122.5 -51
t50.5 -122v-331q0 -126 -89 -215t-214 -89z" />
    <glyph glyph-name="H" unicode="H" horiz-adv-x="1304" 
d="M1229 0h-181v628h-792v-628h-181v1434h181v-625h792v625h181v-1434z" />
    <glyph glyph-name="I" unicode="I" horiz-adv-x="331" 
d="M256 0h-181v1434h181v-1434z" />
    <glyph glyph-name="J" unicode="J" horiz-adv-x="1158" 
d="M579 0q-139 0 -253.5 68.5t-182.5 182.5t-68 253v177h180v-177q0 -134 95 -229t229 -95t229 95t95 229v930h180v-930q0 -139 -68 -253t-182.5 -182.5t-253.5 -68.5z" />
    <glyph glyph-name="K" unicode="K" horiz-adv-x="1324" 
d="M1249 0h-257l-737 617v-617h-180v1434h180v-526l572 526h236l-714 -671z" />
    <glyph glyph-name="L" unicode="L" horiz-adv-x="1168" 
d="M1093 0h-1018v1434h180v-1253h838v-181z" />
    <glyph glyph-name="M" unicode="M" horiz-adv-x="1486" 
d="M1411 0h-181v1139l-399 -589h-176l-399 589v-1139h-181v1434h188l480 -714l480 714h188v-1434z" />
    <glyph glyph-name="N" unicode="N" horiz-adv-x="1168" 
d="M1093 0h-184l-653 1102v-1102h-181v1434h189l648 -1100v1100h181v-1434z" />
    <glyph glyph-name="O" unicode="O" horiz-adv-x="1314" 
d="M936 0h-558q-125 0 -214 89t-89 215v827q0 125 89 214t214 89h558q125 0 214 -89t89 -214v-827q0 -126 -89 -215t-214 -89zM937 180q50 0 86 36t36 87v829q0 51 -36 87t-86 36h-560q-50 0 -86 -36t-36 -87v-829q0 -51 36 -87t86 -36h560z" />
    <glyph glyph-name="P" unicode="P" horiz-adv-x="1304" 
d="M256 0h-181v1435h679q213 0 344 -121t131 -319t-131 -319.5t-344 -121.5h-498v-554zM754 734q127 0 208.5 72.5t84.5 187.5q-3 114 -85.5 187.5t-207.5 73.5h-498v-521h498z" />
    <glyph glyph-name="Q" unicode="Q" horiz-adv-x="1314" 
d="M1185 -162h-182l-90 162h-535q-125 0 -214 89t-89 215v827q0 125 89 214t214 89h558q125 0 214 -89t89 -214v-827q0 -85 -43.5 -156.5t-118.5 -111.5zM815 180l-112 204h185l104 -191q67 40 67 110v829q0 51 -36 87t-87 36h-559q-51 0 -87 -36t-36 -87v-829q0 -51 36 -87
t87 -36h438z" />
    <glyph glyph-name="R" unicode="R" horiz-adv-x="1371" 
d="M1296 0h-199l-400 554h-442v-554h-180v1435h678q213 0 344 -121t131 -319q0 -164 -90 -276.5t-250 -149.5zM753 734q128 0 209.5 72.5t83.5 187.5q-3 114 -85 187.5t-208 73.5h-498v-521h498z" />
    <glyph glyph-name="S" unicode="S" horiz-adv-x="1168" 
d="M790 0h-412q-125 0 -214 89.5t-89 215.5v171h180v-172q0 -51 36 -87t87 -36h412q51 0 87 36t36 87v200q0 51 -36 87t-87 36h-412q-128 4 -215.5 91t-87.5 213v199q0 126 89 215t214 89h412q125 0 214 -89t89 -215v-171h-180v172q0 51 -36 87t-87 36h-412q-51 0 -87 -36
t-36 -87v-200q0 -51 36 -87t87 -36h412q128 -4 215.5 -91t87.5 -214v-198q0 -126 -89 -215.5t-214 -89.5z" />
    <glyph glyph-name="T" unicode="T" horiz-adv-x="1168" 
d="M675 0h-181v1254h-419v180h1018v-180h-418v-1254z" />
    <glyph glyph-name="U" unicode="U" horiz-adv-x="1304" 
d="M652 0q-159 0 -290 78t-209 209t-78 290v857h180v-857q0 -109 53.5 -199t143.5 -144t200 -54q109 0 199 54t144 144t54 199v857h180v-857q0 -159 -78 -290t-209 -209t-290 -78z" />
    <glyph glyph-name="V" unicode="V" horiz-adv-x="1384" 
d="M781 0h-178l-528 1434h184l433 -1176l433 1176h184z" />
    <glyph glyph-name="W" unicode="W" horiz-adv-x="2034" 
d="M1431 0h-178l-236 642l-236 -642h-178l-528 1434h184l433 -1176l233 633l-200 543h184l433 -1176l433 1176h184z" />
    <glyph glyph-name="X" unicode="X" horiz-adv-x="1491" 
d="M1416 0h-199l-472 659l-471 -659h-199l571 799l-455 635h200l354 -496l355 496h200l-455 -635z" />
    <glyph glyph-name="Y" unicode="Y" horiz-adv-x="1492" 
d="M836 0h-180v629l-581 805h200l471 -659l471 659h200l-581 -805v-629z" />
    <glyph glyph-name="Z" unicode="Z" horiz-adv-x="1168" 
d="M1093 0h-1018v166l790 1088h-790v180h1018v-165l-789 -1088h789v-181z" />
    <glyph glyph-name="bracketleft" unicode="[" horiz-adv-x="770" 
d="M695 -221h-620v1874h594v-181h-414v-1512h440v-181z" />
    <glyph glyph-name="backslash" unicode="\" horiz-adv-x="902" 
d="M827 -1h-184l-568 1434h184z" />
    <glyph glyph-name="bracketright" unicode="]" horiz-adv-x="770" 
d="M695 -221h-620v181h439v1512h-413v181h594v-1874z" />
    <glyph glyph-name="asciicircum" unicode="^" horiz-adv-x="861" 
d="M786 1120h-222l-134 282l-133 -282h-222l253 475h204z" />
    <glyph glyph-name="underscore" unicode="_" horiz-adv-x="1050" 
d="M975 -63h-900v181h900v-181z" />
    <glyph glyph-name="grave" unicode="`" horiz-adv-x="597" 
d="M522 1120h-222l-225 475h193z" />
    <glyph glyph-name="a" unicode="a" 
d="M1058 0h-180v26q-60 -26 -124 -26h-376q-125 0 -214 89t-89 214v122q0 72 50.5 122.5t122.5 50.5h506q64 0 124 -26v209q0 51 -36 87t-87 36h-377q-51 0 -87 -36t-36 -87v-91h-180v90q0 126 89 215t214 89h376q126 0 215 -89t89 -215v-780zM755 180q49 0 84.5 34t38.5 85
q-3 51 -38.5 85t-84.5 34h-479q-9 0 -15 -6.5t-6 -14.5v-95q0 -50 36 -86t87 -36h377z" />
    <glyph glyph-name="b" unicode="b" 
d="M754 0h-375q-64 0 -123 26v-26h-181v1434h181v-376q59 26 123 26h375q126 0 215 -89t89 -215v-477q0 -125 -89 -214t-215 -89zM755 180q51 0 87 36t36 86v479q0 51 -36 87t-87 36h-377q-47 0 -81.5 -30.5t-40.5 -78.5v-507q6 -47 40.5 -77.5t81.5 -30.5h377z" />
    <glyph glyph-name="c" unicode="c" 
d="M754 0h-376q-125 0 -214 89t-89 214v477q0 126 89 215t214 89h376q126 0 215 -89t89 -215v-97h-180v98q0 51 -36 87t-87 36h-377q-51 0 -87 -36t-36 -87v-479q0 -50 36 -86t87 -36h377q51 0 87 36t36 86v99h180v-98q0 -125 -89 -214t-215 -89z" />
    <glyph glyph-name="d" unicode="d" 
d="M1058 0h-181v26q-59 -26 -123 -26h-375q-126 0 -215 89t-89 214v477q0 126 89 215t215 89h375q64 0 123 -26v376h181v-1434zM755 180q47 0 81.5 30.5t40.5 77.5v507q-6 48 -40.5 78.5t-81.5 30.5h-377q-51 0 -87 -36t-36 -87v-479q0 -50 36 -86t87 -36h377z" />
    <glyph glyph-name="e" unicode="e" 
d="M754 0h-375q-126 0 -215 89t-89 214v477q0 126 89 215t215 89h375q126 0 215 -89t89 -215v-135q0 -72 -51 -122.5t-122 -50.5h-630v-170q0 -50 36 -86t87 -36h377q51 0 87 36t36 86v99h180v-98q0 -125 -89 -214t-215 -89zM856 652q9 0 15.5 6.5t6.5 15.5v107q0 51 -36 87
t-87 36h-377q-51 0 -87 -36t-36 -87v-129h601z" />
    <glyph glyph-name="f" unicode="f" 
d="M396 0h-180v627h-141v180h141v323q0 126 89 215t215 89h235q125 0 214 -89t89 -215l-180 1q0 51 -36 87t-87 36h-236q-51 0 -87 -36t-36 -87v-324h263v-180h-263v-627z" />
    <glyph glyph-name="g" unicode="g" 
d="M754 -466h-371q-126 0 -215 89t-89 214v90h180v-91q0 -51 36 -87t87 -36h373q51 0 87 36t36 87v190q-60 -26 -124 -26h-376q-125 0 -214 89t-89 214v477q0 126 89 215t214 89h376q64 0 124 -27v27h180v-1247q0 -125 -89 -214t-215 -89zM755 180q51 0 87 36t36 86v479
q0 51 -36 87t-87 36h-377q-51 0 -87 -36t-36 -87v-479q0 -50 36 -86t87 -36h377z" />
    <glyph glyph-name="h" unicode="h" 
d="M1058 0h-180v777q0 51 -36 87t-87 36h-377q-47 0 -81.5 -30.5t-40.5 -77.5v-792h-181v1434h181v-380q59 26 123 26h375q126 0 215 -89t89 -214v-777z" />
    <glyph glyph-name="i" unicode="i" horiz-adv-x="331" 
d="M256 0h-181v1084h181v-1084zM256 1206h-181v228h181v-228z" />
    <glyph glyph-name="j" unicode="j" horiz-adv-x="661" 
d="M586 1206h-181v228h181v-228zM283 -466h-208v179h208q51 0 87 36t36 87v1248h180v-1247q0 -125 -89 -214t-214 -89z" />
    <glyph glyph-name="k" unicode="k" horiz-adv-x="965" 
d="M890 0h-228l-406 410v-410h-181v1434h181v-729l313 379h207l-437 -528z" />
    <glyph glyph-name="l" unicode="l" horiz-adv-x="331" 
d="M256 0h-181v1434h181v-1434z" />
    <glyph glyph-name="m" unicode="m" horiz-adv-x="1560" 
d="M1485 0h-180v777q0 51 -36 87t-87 36h-189q-50 0 -85.5 -34.5t-37.5 -85.5v-780h-180v780q-2 51 -37.5 85.5t-85.5 34.5h-189q-47 0 -81.5 -30.5t-40.5 -77.5v-792h-181v1084h181v-30q59 26 123 26h188q120 0 213 -88q93 88 213 88h188q126 0 215 -89t89 -214v-777z" />
    <glyph glyph-name="n" unicode="n" 
d="M1058 0h-180v777q0 51 -36 87t-87 36h-377q-47 0 -81 -30.5t-41 -77.5v-792h-181v1084h181v-30q59 26 123 26h375q126 0 215 -89t89 -214v-777z" />
    <glyph glyph-name="o" unicode="o" 
d="M754 0h-375q-126 0 -215 89t-89 214v477q0 126 89 215t215 89h375q126 0 215 -89t89 -215v-477q0 -125 -89 -214t-215 -89zM755 180q51 0 87 36t36 86v479q0 51 -36 87t-87 36h-377q-51 0 -87 -36t-36 -87v-479q0 -50 36 -86t87 -36h377z" />
    <glyph glyph-name="p" unicode="p" horiz-adv-x="1132" 
d="M255 -466h-180v1550h180v-26q59 26 123 26h376q125 0 214 -89t89 -215v-477q0 -125 -89 -214t-214 -89h-376q-64 0 -123 26v-492zM755 180q50 0 86 36t36 86v479q0 51 -36 87t-86 36h-378q-47 0 -81 -30.5t-41 -78.5v-507q7 -47 41 -77.5t81 -30.5h378z" />
    <glyph glyph-name="q" unicode="q" horiz-adv-x="1132" 
d="M1057 -466h-180v492q-59 -26 -123 -26h-376q-125 0 -214 89t-89 214v477q0 126 89 215t214 89h376q64 0 123 -26v26h180v-1550zM755 180q47 0 81 30.5t41 77.5v507q-7 48 -41 78.5t-81 30.5h-378q-50 0 -86 -36t-36 -87v-479q0 -50 36 -86t86 -36h378z" />
    <glyph glyph-name="r" unicode="r" horiz-adv-x="945" 
d="M256 0h-181v1084h181v-30q59 26 123 26h188q125 0 214 -89t89 -214v-88h-180v88q0 51 -36 87t-86 36h-190q-47 0 -81 -30.5t-41 -77.5v-792z" />
    <glyph glyph-name="s" unicode="s" 
d="M754 0h-376q-125 0 -214 89t-89 215v38h180v-39q0 -51 36 -87t87 -36h377q51 0 87 36t36 87v26q0 50 -36 86.5t-87 36.5h-377q-128 3 -215.5 90t-87.5 214v24q0 125 89 214.5t214 89.5h376q126 0 215 -89.5t89 -214.5v-38h-180v38q0 51 -36 87t-87 36h-377q-51 0 -87 -36
t-36 -87v-25q0 -51 36 -87t87 -36h377q128 -4 215.5 -91t87.5 -213v-24q0 -126 -89 -215t-215 -89z" />
    <glyph glyph-name="t" unicode="t" horiz-adv-x="1016" 
d="M637 0h-117q-126 0 -215 89t-89 214v461h-141v181h141v489h180v-489h263v-181h-263v-462q0 -50 36 -86t87 -36h119q51 0 87 36t36 86v91h180v-90q0 -125 -89 -214t-215 -89z" />
    <glyph glyph-name="u" unicode="u" 
d="M754 4h-376q-125 0 -214 88.5t-89 214.5v777h180v-778q0 -51 36 -87t87 -36h377q51 0 87 36t36 87v778h180v-777q0 -126 -89 -214.5t-215 -88.5z" />
    <glyph glyph-name="v" unicode="v" horiz-adv-x="1109" 
d="M639 0h-168l-396 1084h184l296 -812l296 812h183z" />
    <glyph glyph-name="w" unicode="w" horiz-adv-x="1623" 
d="M1153 0h-169l-173 474l-173 -474h-168l-395 1084h183l296 -812l165 453l-130 359h183l296 -812l296 812h184z" />
    <glyph glyph-name="x" unicode="x" horiz-adv-x="1227" 
d="M1152 0h-205l-334 455l-333 -455h-205l436 594l-359 490h204l257 -351l258 351h204l-359 -490z" />
    <glyph glyph-name="y" unicode="y" 
d="M754 -466h-371q-126 0 -215 89t-89 214v90h180v-91q0 -51 36 -87t87 -36h373q51 0 87 36t36 87v190q-60 -26 -124 -26h-376q-125 0 -214 89t-89 214v781h180v-782q0 -50 36 -86t87 -36h377q50 0 85.5 35t37.5 87v782h180v-1247q0 -125 -89 -214t-215 -89z" />
    <glyph glyph-name="z" unicode="z" horiz-adv-x="1047" 
d="M972 0h-897v166l662 738h-662v180h897v-167l-656 -737h656v-180z" />
    <glyph glyph-name="braceleft" unicode="{" horiz-adv-x="876" 
 />
    <glyph glyph-name="bar" unicode="|" horiz-adv-x="331" 
 />
    <glyph glyph-name="braceright" unicode="}" horiz-adv-x="876" 
 />
    <glyph glyph-name="asciitilde" unicode="~" horiz-adv-x="742" 
 />
    <glyph glyph-name="exclamdown" unicode="&#xa1;" horiz-adv-x="331" 
 />
    <glyph glyph-name="cent" unicode="&#xa2;" horiz-adv-x="1132" 
 />
    <glyph glyph-name="sterling" unicode="&#xa3;" 
 />
    <glyph glyph-name="currency" unicode="&#xa4;" horiz-adv-x="1240" 
 />
    <glyph glyph-name="yen" unicode="&#xa5;" horiz-adv-x="1491" 
 />
    <glyph glyph-name="brokenbar" unicode="&#xa6;" horiz-adv-x="331" 
 />
    <glyph glyph-name="section" unicode="&#xa7;" horiz-adv-x="1168" 
 />
    <glyph glyph-name="dieresis" unicode="&#xa8;" horiz-adv-x="619" 
 />
    <glyph glyph-name="copyright" unicode="&#xa9;" horiz-adv-x="1428" 
 />
    <glyph glyph-name="ordfeminine" unicode="&#xaa;" horiz-adv-x="706" 
 />
    <glyph glyph-name="guillemotleft" unicode="&#xab;" horiz-adv-x="1122" 
 />
    <glyph glyph-name="logicalnot" unicode="&#xac;" horiz-adv-x="953" 
 />
    <glyph glyph-name="registered" unicode="&#xae;" horiz-adv-x="1427" 
 />
    <glyph glyph-name="macron" unicode="&#xaf;" horiz-adv-x="952" 
 />
    <glyph glyph-name="degree" unicode="&#xb0;" horiz-adv-x="612" 
 />
    <glyph glyph-name="plusminus" unicode="&#xb1;" horiz-adv-x="888" 
 />
    <glyph glyph-name="uni00B2" unicode="&#xb2;" horiz-adv-x="706" 
 />
    <glyph glyph-name="uni00B3" unicode="&#xb3;" horiz-adv-x="702" 
 />
    <glyph glyph-name="acute" unicode="&#xb4;" horiz-adv-x="597" 
 />
    <glyph glyph-name="periodcentered" unicode="&#xb7;" horiz-adv-x="330" 
 />
    <glyph glyph-name="periodcentered" unicode="&#x2219;" horiz-adv-x="330" 
 />
    <glyph glyph-name="cedilla" unicode="&#xb8;" horiz-adv-x="460" 
 />
    <glyph glyph-name="uni00B9" unicode="&#xb9;" horiz-adv-x="706" 
 />
    <glyph glyph-name="ordmasculine" unicode="&#xba;" horiz-adv-x="706" 
 />
    <glyph glyph-name="guillemotright" unicode="&#xbb;" horiz-adv-x="1122" 
 />
    <glyph glyph-name="questiondown" unicode="&#xbf;" horiz-adv-x="1168" 
 />
    <glyph glyph-name="Agrave" unicode="&#xc0;" horiz-adv-x="1384" 
 />
    <glyph glyph-name="Aacute" unicode="&#xc1;" horiz-adv-x="1384" 
 />
    <glyph glyph-name="Acircumflex" unicode="&#xc2;" horiz-adv-x="1384" 
 />
    <glyph glyph-name="Atilde" unicode="&#xc3;" horiz-adv-x="1384" 
 />
    <glyph glyph-name="Adieresis" unicode="&#xc4;" horiz-adv-x="1384" 
 />
    <glyph glyph-name="Aring" unicode="&#xc5;" horiz-adv-x="1384" 
 />
    <glyph glyph-name="AE" unicode="&#xc6;" horiz-adv-x="2036" 
 />
    <glyph glyph-name="Ccedilla" unicode="&#xc7;" horiz-adv-x="1315" 
 />
    <glyph glyph-name="Egrave" unicode="&#xc8;" horiz-adv-x="1168" 
 />
    <glyph glyph-name="Eacute" unicode="&#xc9;" horiz-adv-x="1168" 
 />
    <glyph glyph-name="Ecircumflex" unicode="&#xca;" horiz-adv-x="1168" 
 />
    <glyph glyph-name="Edieresis" unicode="&#xcb;" horiz-adv-x="1168" 
 />
    <glyph glyph-name="Igrave" unicode="&#xcc;" horiz-adv-x="492" 
 />
    <glyph glyph-name="Iacute" unicode="&#xcd;" horiz-adv-x="492" 
 />
    <glyph glyph-name="Icircumflex" unicode="&#xce;" horiz-adv-x="653" 
 />
    <glyph glyph-name="Idieresis" unicode="&#xcf;" horiz-adv-x="568" 
 />
    <glyph glyph-name="Eth" unicode="&#xd0;" horiz-adv-x="1442" 
 />
    <glyph glyph-name="Ntilde" unicode="&#xd1;" horiz-adv-x="1168" 
 />
    <glyph glyph-name="Ograve" unicode="&#xd2;" horiz-adv-x="1315" 
 />
    <glyph glyph-name="Oacute" unicode="&#xd3;" horiz-adv-x="1314" 
 />
    <glyph glyph-name="Ocircumflex" unicode="&#xd4;" horiz-adv-x="1314" 
 />
    <glyph glyph-name="Otilde" unicode="&#xd5;" horiz-adv-x="1315" 
 />
    <glyph glyph-name="Odieresis" unicode="&#xd6;" horiz-adv-x="1314" 
 />
    <glyph glyph-name="multiply" unicode="&#xd7;" horiz-adv-x="808" 
 />
    <glyph glyph-name="Oslash" unicode="&#xd8;" horiz-adv-x="1465" 
 />
    <glyph glyph-name="Ugrave" unicode="&#xd9;" horiz-adv-x="1303" 
 />
    <glyph glyph-name="Uacute" unicode="&#xda;" horiz-adv-x="1303" 
 />
    <glyph glyph-name="Ucircumflex" unicode="&#xdb;" horiz-adv-x="1304" 
 />
    <glyph glyph-name="Udieresis" unicode="&#xdc;" horiz-adv-x="1304" 
 />
    <glyph glyph-name="Yacute" unicode="&#xdd;" horiz-adv-x="1491" 
 />
    <glyph glyph-name="Thorn" unicode="&#xde;" horiz-adv-x="1075" 
 />
    <glyph glyph-name="germandbls" unicode="&#xdf;" horiz-adv-x="1298" 
 />
    <glyph glyph-name="agrave" unicode="&#xe0;" 
 />
    <glyph glyph-name="aacute" unicode="&#xe1;" 
 />
    <glyph glyph-name="acircumflex" unicode="&#xe2;" 
 />
    <glyph glyph-name="atilde" unicode="&#xe3;" 
 />
    <glyph glyph-name="adieresis" unicode="&#xe4;" 
 />
    <glyph glyph-name="aring" unicode="&#xe5;" 
 />
    <glyph glyph-name="ae" unicode="&#xe6;" horiz-adv-x="1936" 
 />
    <glyph glyph-name="ccedilla" unicode="&#xe7;" 
 />
    <glyph glyph-name="egrave" unicode="&#xe8;" 
 />
    <glyph glyph-name="eacute" unicode="&#xe9;" 
 />
    <glyph glyph-name="ecircumflex" unicode="&#xea;" 
 />
    <glyph glyph-name="edieresis" unicode="&#xeb;" horiz-adv-x="1132" 
 />
    <glyph glyph-name="igrave" unicode="&#xec;" horiz-adv-x="493" 
 />
    <glyph glyph-name="iacute" unicode="&#xed;" horiz-adv-x="493" 
 />
    <glyph glyph-name="icircumflex" unicode="&#xee;" horiz-adv-x="653" 
 />
    <glyph glyph-name="idieresis" unicode="&#xef;" horiz-adv-x="568" 
 />
    <glyph glyph-name="ntilde" unicode="&#xf1;" 
 />
    <glyph glyph-name="ograve" unicode="&#xf2;" 
 />
    <glyph glyph-name="oacute" unicode="&#xf3;" 
 />
    <glyph glyph-name="ocircumflex" unicode="&#xf4;" 
 />
    <glyph glyph-name="otilde" unicode="&#xf5;" horiz-adv-x="1132" 
 />
    <glyph glyph-name="odieresis" unicode="&#xf6;" 
 />
    <glyph glyph-name="divide" unicode="&#xf7;" horiz-adv-x="759" 
 />
    <glyph glyph-name="oslash" unicode="&#xf8;" horiz-adv-x="1284" 
 />
    <glyph glyph-name="ugrave" unicode="&#xf9;" horiz-adv-x="1132" 
 />
    <glyph glyph-name="uacute" unicode="&#xfa;" 
 />
    <glyph glyph-name="ucircumflex" unicode="&#xfb;" horiz-adv-x="1132" 
 />
    <glyph glyph-name="udieresis" unicode="&#xfc;" 
 />
    <glyph glyph-name="yacute" unicode="&#xfd;" 
 />
    <glyph glyph-name="thorn" unicode="&#xfe;" 
 />
    <glyph glyph-name="ydieresis" unicode="&#xff;" horiz-adv-x="1132" 
 />
    <glyph glyph-name="dotlessi" unicode="&#x131;" horiz-adv-x="331" 
 />
    <glyph glyph-name="gravecomb" unicode="&#x300;" horiz-adv-x="493" 
 />
    <glyph glyph-name="acutecomb" unicode="&#x301;" horiz-adv-x="493" 
 />
    <glyph glyph-name="uni0302" unicode="&#x302;" horiz-adv-x="653" 
 />
    <glyph glyph-name="tildecomb" unicode="&#x303;" horiz-adv-x="677" 
 />
    <glyph glyph-name="uni0304" unicode="&#x304;" horiz-adv-x="641" 
 />
    <glyph glyph-name="uni0307" unicode="&#x307;" horiz-adv-x="315" 
 />
    <glyph glyph-name="uni0308" unicode="&#x308;" horiz-adv-x="568" 
 />
    <glyph glyph-name="uni030A" unicode="&#x30a;" horiz-adv-x="563" 
 />
    <glyph glyph-name="uni030C" unicode="&#x30c;" horiz-adv-x="654" 
 />
    <glyph glyph-name="uni0327" unicode="&#x327;" horiz-adv-x="460" 
 />
    <glyph glyph-name="endash" unicode="&#x2013;" horiz-adv-x="974" 
 />
    <glyph glyph-name="emdash" unicode="&#x2014;" horiz-adv-x="1385" 
 />
    <glyph glyph-name="quoteleft" unicode="&#x2018;" horiz-adv-x="331" 
 />
    <glyph glyph-name="quoteright" unicode="&#x2019;" horiz-adv-x="332" 
 />
    <glyph glyph-name="quotesinglbase" unicode="&#x201a;" horiz-adv-x="332" 
 />
    <glyph glyph-name="quotedblleft" unicode="&#x201c;" horiz-adv-x="582" 
 />
    <glyph glyph-name="quotedblright" unicode="&#x201d;" horiz-adv-x="581" 
 />
    <glyph glyph-name="quotedblbase" unicode="&#x201e;" horiz-adv-x="581" 
 />
    <glyph glyph-name="dagger" unicode="&#x2020;" horiz-adv-x="973" 
 />
    <glyph glyph-name="daggerdbl" unicode="&#x2021;" horiz-adv-x="973" 
 />
    <glyph glyph-name="bullet" unicode="&#x2022;" horiz-adv-x="475" 
 />
    <glyph glyph-name="ellipsis" unicode="&#x2026;" horiz-adv-x="871" 
 />
    <glyph glyph-name="guilsinglleft" unicode="&#x2039;" horiz-adv-x="692" 
 />
    <glyph glyph-name="guilsinglright" unicode="&#x203a;" horiz-adv-x="692" 
 />
    <glyph glyph-name="fraction" unicode="&#x2044;" horiz-adv-x="1359" 
 />
    <glyph glyph-name="fraction" unicode="&#x2215;" horiz-adv-x="1359" 
 />
    <glyph glyph-name="franc" unicode="&#x20a3;" horiz-adv-x="1373" 
 />
    <glyph glyph-name="lira" unicode="&#x20a4;" 
 />
    <glyph glyph-name="Euro" unicode="&#x20ac;" horiz-adv-x="1153" 
 />
    <glyph glyph-name="OE" unicode="&#x152;" horiz-adv-x="2152" 
 />
    <glyph glyph-name="oe" unicode="&#x153;" horiz-adv-x="1936" 
 />
    <glyph glyph-name="Scaron" unicode="&#x160;" horiz-adv-x="1168" 
 />
    <glyph glyph-name="scaron" unicode="&#x161;" horiz-adv-x="1132" 
 />
    <glyph glyph-name="Ydieresis" unicode="&#x178;" horiz-adv-x="1491" 
 />
    <glyph glyph-name="Zcaron" unicode="&#x17d;" horiz-adv-x="1169" 
 />
    <glyph glyph-name="zcaron" unicode="&#x17e;" horiz-adv-x="1047" 
 />
    <glyph glyph-name="perthousand" unicode="&#x2030;" horiz-adv-x="2369" 
 />
    </font>
</defs>
</svg>
