<svg xmlns="http://www.w3.org/2000/svg" viewBox="0 0 3326.85 1353.82">
    <defs>
        <style>
            .cls-1 {
                fill: currentColor;
            }
        </style>
    </defs>
    <g id="Capa_2" data-name="Capa 2">
        <g id="Capa_3" data-name="Capa 3">
            <g id="Capa_6" data-name="Capa 6">
                <path class="cls-1"
                    d="M1663.42,1144.39,1482.53,865.87,1499,838.31c2.48-4.14,61.64-102.55,149.42-210.35,121.43-149.13,234.82-239.77,337-269.4l7-2h377.13v387l-3.6,9.09c-66.14,167.17-173.88,221.75-252.62,238.1-84.09,17.47-162.91-6.69-170.29-9.23l56.66-92.19s38,13.47,96.72.09c74.32-16.93,131.66-72.66,170.54-165.68V459.15H2007.41c-151.56,49.28-328.49,287.2-403.56,404.78l59.57,89.3Z" />
                <path class="cls-1"
                    d="M1663.42,1144.39l180.9-278.52-16.5-27.56c-2.47-4.14-61.63-102.55-149.41-210.35-121.43-149.13-234.82-239.77-337-269.4l-7-2H957.28v387l3.6,9.09c66.13,167.17,173.88,221.75,252.61,238.1,84.1,17.47,162.92-6.69,170.3-9.23l-56.67-92.19s-38,13.47-96.71.09c-74.32-16.93-131.66-72.66-170.54-165.68V459.15h259.57C1471,508.43,1647.92,746.35,1723,863.93l-59.58,89.3Z" />
                <ellipse class="cls-1" cx="1277.56" cy="676.91" rx="51.3" ry="51.31" />
                <ellipse class="cls-1" cx="2049.19" cy="676.91" rx="51.3" ry="51.31" />
                <path class="cls-1"
                    d="M688.82,676.91a969.51,969.51,0,0,1,84.32-396.48l-94-41.86c-2.8,6.28-5.59,12.57-8.27,18.92-56.18,132.87-84.67,274-84.67,419.42s28.49,286.55,84.67,419.42c2.68,6.34,5.47,12.63,8.27,18.91l94-41.85A969.54,969.54,0,0,1,688.82,676.91Z" />
                <path class="cls-1"
                    d="M2740.62,676.91c0-145.44-28.49-286.55-84.67-419.42-2.69-6.35-5.47-12.64-8.27-18.92l-94,41.86a974.2,974.2,0,0,1,0,793l94,41.85c2.8-6.28,5.58-12.57,8.27-18.91C2712.13,963.46,2740.62,822.34,2740.62,676.91Z" />
                <path class="cls-1"
                    d="M2931.14,676.91a1261,1261,0,0,1-109.65,515.74l94.05,41.89q5.34-12,10.49-24.09c71.46-169,107.7-348.52,107.7-533.54S2997.49,312.38,2926,143.36q-5.13-12.11-10.49-24.08l-94.05,41.89A1260.93,1260.93,0,0,1,2931.14,676.91Z" />
                <path class="cls-1"
                    d="M293.11,676.91c0,185,36.24,364.53,107.71,533.54q5.12,12.1,10.48,24.09l94.06-41.89a1267.61,1267.61,0,0,1,0-1031.48L411.3,119.28q-5.34,12-10.48,24.08C329.35,312.38,293.11,491.89,293.11,676.91Z" />
                <path class="cls-1"
                    d="M3326.85,676.91c0-224.6-44-442.51-130.74-647.67q-6.22-14.7-12.73-29.24l-94.13,41.92c86.73,194.1,135,409,135,635s-48.28,440.89-135,635l94.13,41.92q6.48-14.57,12.73-29.25C3282.86,1119.41,3326.85,901.51,3326.85,676.91Z" />
                <path class="cls-1"
                    d="M102.59,676.91c0-226,48.27-440.89,135-635L143.47,0Q137,14.55,130.74,29.24C44,234.4,0,452.31,0,676.91s44,442.5,130.74,647.66q6.22,14.72,12.73,29.25l94.13-41.92C150.86,1117.8,102.59,902.89,102.59,676.91Z" />
            </g>
        </g>
    </g>
</svg>